<svg xmlns="http://www.w3.org/2000/svg" viewBox="0 0 512 512">
  <defs>
    <linearGradient id="grad1" x1="0%" y1="0%" x2="100%" y2="100%">
      <stop offset="0%" style="stop-color:#1e293b;stop-opacity:1" />
      <stop offset="100%" style="stop-color:#0f172a;stop-opacity:1" />
    </linearGradient>
    <linearGradient id="grad2" x1="0%" y1="0%" x2="100%" y2="0%">
      <stop offset="0%" style="stop-color:#3b82f6;stop-opacity:1" />
      <stop offset="100%" style="stop-color:#60a5fa;stop-opacity:1" />
    </linearGradient>
  </defs>
  
  <!-- Background Container -->
  <rect x="32" y="32" width="448" height="448" rx="112" fill="url(#grad1)" />
  
  <!-- Sigma Symbol -->
  <path d="M352 144H160c-8.8 0-16 7.2-16 16v16c0 6.2 3.5 11.9 9 14.7L254.9 256 153 321.3c-5.5 2.8-9 8.5-9 14.7v16c0 8.8 7.2 16 16 16h192c8.8 0 16-7.2 16-16v-32c0-8.8-7.2-16-16-16H206.6l85.7-56.3c5.3-3.5 5.3-11.2 0-14.7L206.6 176H352c8.8 0 16-7.2 16-16v-32c0-8.8-7.2-16-16-16z" fill="white"/>

  <!-- "Scan" Line / Accent -->
  <rect x="128" y="390" width="256" height="16" rx="8" fill="url(#grad2)" opacity="0.8" />
</svg>